<mxfile host="app.diagrams.net" agent="Mozilla/5.0 (Windows NT 10.0; Win64; x64) AppleWebKit/537.36 (KHTML, like Gecko) Chrome/128.0.0.0 Safari/537.36 Edg/128.0.0.0" version="24.7.8">
  <diagram name="Page-1" id="nXn4KdhyMDgiwo05jfsl">
    <mxGraphModel dx="1042" dy="614" grid="1" gridSize="10" guides="1" tooltips="1" connect="1" arrows="1" fold="1" page="1" pageScale="1" pageWidth="850" pageHeight="1100" math="0" shadow="0">
      <root>
        <mxCell id="0" />
        <mxCell id="1" parent="0" />
        <mxCell id="dtP9Ra7N88JWsgq6KhZl-1" value="AWS Cloud" style="points=[[0,0],[0.25,0],[0.5,0],[0.75,0],[1,0],[1,0.25],[1,0.5],[1,0.75],[1,1],[0.75,1],[0.5,1],[0.25,1],[0,1],[0,0.75],[0,0.5],[0,0.25]];outlineConnect=0;gradientColor=none;html=1;whiteSpace=wrap;fontSize=12;fontStyle=0;container=1;pointerEvents=0;collapsible=0;recursiveResize=0;shape=mxgraph.aws4.group;grIcon=mxgraph.aws4.group_aws_cloud_alt;strokeColor=#232F3E;fillColor=none;verticalAlign=top;align=left;spacingLeft=30;fontColor=#232F3E;dashed=0;" parent="1" vertex="1">
          <mxGeometry x="240" y="510" width="490" height="290" as="geometry" />
        </mxCell>
        <mxCell id="dtP9Ra7N88JWsgq6KhZl-15" style="edgeStyle=orthogonalEdgeStyle;rounded=0;orthogonalLoop=1;jettySize=auto;html=1;" parent="dtP9Ra7N88JWsgq6KhZl-1" source="dtP9Ra7N88JWsgq6KhZl-8" target="dtP9Ra7N88JWsgq6KhZl-10" edge="1">
          <mxGeometry relative="1" as="geometry" />
        </mxCell>
        <mxCell id="dtP9Ra7N88JWsgq6KhZl-8" value="" style="shape=image;verticalLabelPosition=bottom;labelBackgroundColor=default;verticalAlign=top;aspect=fixed;imageAspect=0;image=data:image/svg+xml,PHN2ZyB4bWxuczp4bGluaz0iaHR0cDovL3d3dy53My5vcmcvMTk5OS94bGluayIgeG1sbnM9Imh0dHA6Ly93d3cudzMub3JnLzIwMDAvc3ZnIiBwcmVzZXJ2ZUFzcGVjdFJhdGlvPSJ4TWlkWU1pZCIgdmVyc2lvbj0iMS4xIiB2aWV3Qm94PSIwIDAgMjU2IDE5MSIgaGVpZ2h0PSIxOTFweCIgd2lkdGg9IjI1NnB4Ij4mI3hhOyAgICA8dGl0bGU+QW1wbGlmeTwvdGl0bGU+JiN4YTsgICAgPGRlZnM+JiN4YTsgICAgICAgIDxsaW5lYXJHcmFkaWVudCBpZD0iQW1wbGlmeS1saW5lYXJHcmFkaWVudC0xIiB5Mj0iNzcuODI4MTY4MyUiIHgyPSIwJSIgeTE9IjIyLjE3MTgzMTclIiB4MT0iMTAwJSI+JiN4YTsgICAgICAgICAgICA8c3RvcCBvZmZzZXQ9IjAlIiBzdG9wLWNvbG9yPSIjRkY5OTAwIi8+JiN4YTsgICAgICAgICAgICA8c3RvcCBvZmZzZXQ9IjEwMCUiIHN0b3AtY29sb3I9IiNGRkMzMDAiLz4mI3hhOyAgICAgICAgPC9saW5lYXJHcmFkaWVudD4mI3hhOyAgICA8L2RlZnM+JiN4YTsgICAgPGc+JiN4YTsgICAgICAgIDxwYXRoIGZpbGw9InVybCgjQW1wbGlmeS1saW5lYXJHcmFkaWVudC0xKSIgZD0iTTU1LjcwOTE4NTIsMTU4LjQ3NjE5IEwxMjcuODE1ODgyLDE1OC40NzYxOSBMMTQ2LjI4NTcxNCwxOTAuOTg0MTI3IEwxNDUuNzY1MzY4LDE5MC45ODQxMjcgTDAsMTkwLjk4NDEyNyBMNTEuMzY0Mjg3OCwxMDEuOTc3Njc1IEw3Mi44ODkyNTk3LDY0LjcwNTY4MzkgTDkxLjM2OTY3MTcsOTYuNzI4MjI4IEw1NS43MDkxODUyLDE1OC40NzYxOSBaIE04Mi42MDE0NzEyLDQ3Ljg1MDE1NzMgTDEwMC4zNDU0MDIsMTcuMTA0MzI5MSBMMjAwLjc2NTg5OSwxOTAuOTgzNjA0IEwxNjUuMjAzMDc0LDE5MC45ODM2MDQgTDgyLjYwMTQ3MTIsNDcuODUwMTU3MyBaIE0xMTAuMjIxNDgxLDAgTDE0NS43MzY5NjEsMCBMMjU2LDE5MC45ODQxMjcgTDIyMC40Mzk4MDQsMTkwLjk4NDEyNyBMMTEwLjIyMTQ4MSwwIFoiLz4mI3hhOyAgICA8L2c+JiN4YTs8L3N2Zz4=;" parent="dtP9Ra7N88JWsgq6KhZl-1" vertex="1">
          <mxGeometry x="20" y="40" width="80.42" height="60" as="geometry" />
        </mxCell>
        <mxCell id="dtP9Ra7N88JWsgq6KhZl-10" value="" style="sketch=0;points=[[0,0,0],[0.25,0,0],[0.5,0,0],[0.75,0,0],[1,0,0],[0,1,0],[0.25,1,0],[0.5,1,0],[0.75,1,0],[1,1,0],[0,0.25,0],[0,0.5,0],[0,0.75,0],[1,0.25,0],[1,0.5,0],[1,0.75,0]];outlineConnect=0;fontColor=#232F3E;fillColor=#E7157B;strokeColor=#ffffff;dashed=0;verticalLabelPosition=bottom;verticalAlign=top;align=center;html=1;fontSize=12;fontStyle=0;aspect=fixed;shape=mxgraph.aws4.resourceIcon;resIcon=mxgraph.aws4.api_gateway;" parent="dtP9Ra7N88JWsgq6KhZl-1" vertex="1">
          <mxGeometry x="146" y="31" width="78" height="78" as="geometry" />
        </mxCell>
        <mxCell id="dtP9Ra7N88JWsgq6KhZl-11" value="" style="sketch=0;points=[[0,0,0],[0.25,0,0],[0.5,0,0],[0.75,0,0],[1,0,0],[0,1,0],[0.25,1,0],[0.5,1,0],[0.75,1,0],[1,1,0],[0,0.25,0],[0,0.5,0],[0,0.75,0],[1,0.25,0],[1,0.5,0],[1,0.75,0]];outlineConnect=0;fontColor=#232F3E;fillColor=#ED7100;strokeColor=#ffffff;dashed=0;verticalLabelPosition=bottom;verticalAlign=top;align=center;html=1;fontSize=12;fontStyle=0;aspect=fixed;shape=mxgraph.aws4.resourceIcon;resIcon=mxgraph.aws4.lambda;" parent="dtP9Ra7N88JWsgq6KhZl-1" vertex="1">
          <mxGeometry x="280" y="31" width="78" height="78" as="geometry" />
        </mxCell>
        <mxCell id="dtP9Ra7N88JWsgq6KhZl-12" value="" style="sketch=0;points=[[0,0,0],[0.25,0,0],[0.5,0,0],[0.75,0,0],[1,0,0],[0,1,0],[0.25,1,0],[0.5,1,0],[0.75,1,0],[1,1,0],[0,0.25,0],[0,0.5,0],[0,0.75,0],[1,0.25,0],[1,0.5,0],[1,0.75,0]];outlineConnect=0;fontColor=#232F3E;fillColor=#C925D1;strokeColor=#ffffff;dashed=0;verticalLabelPosition=bottom;verticalAlign=top;align=center;html=1;fontSize=12;fontStyle=0;aspect=fixed;shape=mxgraph.aws4.resourceIcon;resIcon=mxgraph.aws4.dynamodb;" parent="dtP9Ra7N88JWsgq6KhZl-1" vertex="1">
          <mxGeometry x="400" y="31" width="78" height="78" as="geometry" />
        </mxCell>
        <mxCell id="dtP9Ra7N88JWsgq6KhZl-13" value="" style="sketch=0;points=[[0,0,0],[0.25,0,0],[0.5,0,0],[0.75,0,0],[1,0,0],[0,1,0],[0.25,1,0],[0.5,1,0],[0.75,1,0],[1,1,0],[0,0.25,0],[0,0.5,0],[0,0.75,0],[1,0.25,0],[1,0.5,0],[1,0.75,0]];outlineConnect=0;fontColor=#232F3E;fillColor=#DD344C;strokeColor=#ffffff;dashed=0;verticalLabelPosition=bottom;verticalAlign=top;align=center;html=1;fontSize=12;fontStyle=0;aspect=fixed;shape=mxgraph.aws4.resourceIcon;resIcon=mxgraph.aws4.identity_and_access_management;" parent="dtP9Ra7N88JWsgq6KhZl-1" vertex="1">
          <mxGeometry x="280" y="140" width="78" height="78" as="geometry" />
        </mxCell>
        <mxCell id="dtP9Ra7N88JWsgq6KhZl-16" style="edgeStyle=orthogonalEdgeStyle;rounded=0;orthogonalLoop=1;jettySize=auto;html=1;entryX=0;entryY=0.5;entryDx=0;entryDy=0;entryPerimeter=0;" parent="dtP9Ra7N88JWsgq6KhZl-1" source="dtP9Ra7N88JWsgq6KhZl-10" target="dtP9Ra7N88JWsgq6KhZl-11" edge="1">
          <mxGeometry relative="1" as="geometry" />
        </mxCell>
        <mxCell id="dtP9Ra7N88JWsgq6KhZl-17" style="edgeStyle=orthogonalEdgeStyle;rounded=0;orthogonalLoop=1;jettySize=auto;html=1;entryX=0;entryY=0.5;entryDx=0;entryDy=0;entryPerimeter=0;" parent="dtP9Ra7N88JWsgq6KhZl-1" source="dtP9Ra7N88JWsgq6KhZl-11" target="dtP9Ra7N88JWsgq6KhZl-12" edge="1">
          <mxGeometry relative="1" as="geometry" />
        </mxCell>
        <mxCell id="dtP9Ra7N88JWsgq6KhZl-18" style="edgeStyle=orthogonalEdgeStyle;rounded=0;orthogonalLoop=1;jettySize=auto;html=1;entryX=0.5;entryY=0;entryDx=0;entryDy=0;entryPerimeter=0;" parent="dtP9Ra7N88JWsgq6KhZl-1" source="dtP9Ra7N88JWsgq6KhZl-11" target="dtP9Ra7N88JWsgq6KhZl-13" edge="1">
          <mxGeometry relative="1" as="geometry" />
        </mxCell>
        <mxCell id="dtP9Ra7N88JWsgq6KhZl-9" value="users" style="sketch=0;outlineConnect=0;gradientColor=none;fontColor=#545B64;strokeColor=none;fillColor=#879196;dashed=0;verticalLabelPosition=bottom;verticalAlign=top;align=center;html=1;fontSize=12;fontStyle=0;aspect=fixed;shape=mxgraph.aws4.illustration_users;pointerEvents=1" parent="1" vertex="1">
          <mxGeometry x="60" y="550" width="60" height="60" as="geometry" />
        </mxCell>
        <mxCell id="dtP9Ra7N88JWsgq6KhZl-14" value="" style="edgeStyle=orthogonalEdgeStyle;html=1;endArrow=block;elbow=vertical;startArrow=none;endFill=1;strokeColor=#545B64;rounded=0;entryX=0;entryY=0.5;entryDx=0;entryDy=0;" parent="1" target="dtP9Ra7N88JWsgq6KhZl-8" edge="1">
          <mxGeometry width="100" relative="1" as="geometry">
            <mxPoint x="119.44228109906408" y="580" as="sourcePoint" />
            <mxPoint x="210" y="610" as="targetPoint" />
          </mxGeometry>
        </mxCell>
      </root>
    </mxGraphModel>
  </diagram>
</mxfile>
